<svg xmlns="http://www.w3.org/2000/svg" viewBox="0 0 1046 567"><g fill="none" fill-rule="evenodd"><path d="M672.568 192.083c37.025 0 63.898 27.47 63.898 75.544 0 48.072-26.873 75.842-63.898 75.842-17.02 0-32.845-7.166-44.492-22.095v56.732c0 10.153-8.358 18.512-19.109 18.512-10.45 0-18.81-8.359-18.81-18.512v-165.72c0-10.15 8.36-18.512 19.407-18.512 10.154 0 18.512 8.361 18.512 18.512v1.494c11.05-14.034 26.874-21.797 44.492-21.797m144.155 0c18.81 0 44.49 5.97 52.55 17.617a13.06 13.06 0 0 1 2.39 7.464c0 8.063-7.165 14.333-14.93 14.333-2.388 0-5.075-.597-7.164-1.792-9.258-5.374-20.901-8.66-32.548-8.66-13.736 0-22.693 6.272-22.693 14.334 0 21.498 85.397 3.584 85.397 61.809 0 26.276-22.393 46.28-62.406 46.28-18.811 0-48.97-6.27-57.926-19.11q-2.687-3.582-2.687-8.06c0-8.957 7.763-15.825 15.825-15.825 2.687 0 5.374.596 7.764 2.089 11.346 6.57 26.275 11.644 38.817 11.644 16.42 0 24.185-6.567 24.185-15.524 0-23.89-85.695-4.481-85.695-61.213 0-24.187 21.199-45.385 59.12-45.385zm-325.245 0c32.546 0 57.33 18.81 67.483 48.67 2.09 6.569 4.178 14.633 4.178 21.798 0 9.257-7.762 17.318-17.617 17.318h-88.98c2.39 18.215 17.021 33.442 41.505 33.442 8.062 0 19.11-2.387 28.068-7.166 2.388-1.194 5.075-1.791 7.465-1.791 8.061 0 16.123 6.27 16.123 15.229 0 17.018-36.727 23.886-55.837 23.886-43.893 0-77.036-29.561-77.036-75.841 0-41.804 30.755-75.544 74.648-75.544zm434.822 1.792c10.152 0 18.51 8.36 18.51 18.512v110.479c0 10.45-8.358 18.812-19.11 18.812a18.733 18.733 0 0 1-18.81-18.812v-110.48c0-10.151 8.36-18.511 19.41-18.511m-265.676 31.948c-12.24 0-26.275 7.167-32.548 16.424v51.057c6.273 8.96 20.307 16.423 32.548 16.423 21.798 0 36.43-17.018 36.43-42.1 0-24.784-14.632-41.804-36.43-41.804m-169.146-3.582c-23.588 0-33.74 17.617-35.533 31.949h71.066c-.896-13.734-10.45-31.95-35.533-31.95zm434.223-87.19c12.543 0 22.693 9.855 22.693 22.396s-10.15 22.692-22.693 22.692c-12.241 0-22.692-10.151-22.692-22.692s10.45-22.395 22.692-22.395z" fill="#fff"/><path d="M266.897 344.073h42.224v-42.224h-42.224z" fill="#935b9e"/><path d="M140.224 301.849h42.224v-42.224h-42.224z" fill="#8fbf55"/><path d="M266.897 217.4v42.224h-42.224v42.224h-42.225v42.224h84.449v-42.224h42.224V217.4z" fill="#37b7d5"/><path d="M224.673 217.4h-42.225v84.448h42.225v-42.224h42.224V217.4z" fill="#fad053"/><path d="M271.429 81v42.225h42.224v42.224h42.224V81z" fill="#da4759"/><path d="M182.448 175.176v-42.224H98v211.121h84.448v-42.224h-42.224v-42.224h42.224V217.4h-42.224v-42.225z" fill="#4b4b99"/><path d="M224.673 175.176v-42.224h-42.225v42.224h-42.224V217.4h126.673v-42.225z" fill="#e4813f"/><path d="M113.137 469v-27.548h7.963v-6.887h-7.963v-5.596q0-1.291.215-2.655c.215-1.364.419-1.745.826-2.51s.992-1.388 1.757-1.866q1.148-.717 3.013-.717.933 0 1.758.143.825.144 1.542.359l.574-7.318q-1.004-.286-1.973-.394c-.969-.108-1.446-.108-2.403-.108q-4.017 0-6.672 1.256t-4.268 3.407c-1.613 2.151-1.842 3.097-2.296 4.986s-.682 3.862-.682 5.919v5.094H98v6.887h6.528V469zm27.524 1.004q3.874 0 7.318-1.363c3.444-1.363 4.28-2.164 5.954-3.766q2.511-2.403 3.982-5.775 1.47-3.372 1.47-7.461c0-4.089-.49-5.201-1.47-7.425s-2.308-4.125-3.982-5.704q-2.51-2.367-5.954-3.659-3.444-1.29-7.318-1.29c-3.874 0-5.021.43-7.317 1.29q-3.443 1.292-5.955 3.66-2.51 2.367-3.981 5.703-1.47 3.336-1.47 7.425c0 4.089.49 5.213 1.47 7.46q1.47 3.373 3.981 5.776 2.512 2.404 5.955 3.766c3.443 1.362 4.735 1.363 7.317 1.363m0-7.174q-2.582 0-4.448-1.004-1.864-1.004-3.084-2.583a11.1 11.1 0 0 1-1.83-3.587q-.61-2.008-.61-4.017c0-2.009.204-2.667.61-3.982a11.1 11.1 0 0 1 1.83-3.551q1.22-1.578 3.084-2.547 1.866-.968 4.448-.968c2.582 0 3.205.323 4.448.968q1.866.969 3.085 2.547a11.1 11.1 0 0 1 1.83 3.551q.61 1.973.61 3.982c0 2.009-.204 2.678-.61 4.017a11.1 11.1 0 0 1-1.83 3.587q-1.22 1.578-3.085 2.583t-4.448 1.004m33.192 6.17v-18.437q0-.934.359-2.511.358-1.578 1.363-3.085t2.798-2.583 4.735-1.076q.573 0 1.183.072t1.471.287v-7.892a4 4 0 0 0-1.004-.179 17 17 0 0 0-1.076-.036q-3.444 0-6.027 1.865c-2.583 1.865-3.06 2.87-4.017 4.879h-.144v-5.74h-8.25V469zm23.65 0v-18.94q0-1.72.467-3.407.466-1.687 1.363-2.977c.897-1.29 1.375-1.567 2.331-2.117q1.435-.825 3.372-.825 3.3 0 4.842 2.117 1.543 2.115 1.543 5.344V469h8.609v-18.796q0-1.65.43-3.336a9.5 9.5 0 0 1 1.363-3.049q.933-1.363 2.368-2.224c1.435-.861 2.104-.86 3.443-.86q2.081 0 3.336.86a6.2 6.2 0 0 1 1.973 2.188q.718 1.327.933 2.977c.215 1.65.215 2.153.215 3.157V469h8.609v-21.522q0-2.655-.718-5.166-.717-2.51-2.26-4.447t-3.945-3.121-5.775-1.184q-3.874 0-6.744 1.686t-4.591 4.843q-1.435-2.942-4.09-4.735t-6.671-1.794q-2.08 0-3.803.538c-1.723.538-2.164.85-3.049 1.47a12 12 0 0 0-2.295 2.081 10.2 10.2 0 0 0-1.543 2.44h-.143v-5.524h-8.179V469zm63.251.86q3.659 0 6.529-1.47c2.87-1.47 3.3-2.236 4.16-3.766h.216V469h8.035v-20.948a20.2 20.2 0 0 0-.682-5.166q-.681-2.582-2.403-4.663c-1.722-2.081-2.714-2.51-4.7-3.372q-2.976-1.29-7.568-1.29-3.945 0-7.784 1.362c-3.839 1.362-4.818 2.272-6.78 4.09l4.449 5.236q1.65-1.65 4.16-2.797a12.5 12.5 0 0 1 5.238-1.148q3.228 0 5.56 1.542c2.332 1.542 2.331 2.619 2.331 4.77v.862a88 88 0 0 0-8.214.394q-4.197.394-7.64 1.615c-3.443 1.221-4.173 1.984-5.632 3.515q-2.188 2.295-2.188 6.17 0 3.012 1.255 5.057 1.256 2.044 3.157 3.3 1.9 1.255 4.16 1.794c2.26.539 2.954.538 4.341.538zm1.722-6.528q-1.076 0-2.152-.215c-1.076-.215-1.363-.382-1.937-.717a4.1 4.1 0 0 1-1.4-1.327q-.537-.825-.537-2.045 0-1.937 1.291-3.049t3.228-1.722c1.938-.611 2.703-.67 4.233-.789q2.296-.18 4.376-.18h1.937v1.22q0 4.09-2.295 6.457c-2.295 2.367-3.779 2.367-6.744 2.367m36.348 6.385q1.435 0 3.013-.25 1.578-.252 2.726-.682l-.287-6.744a7.5 7.5 0 0 1-1.793.538q-1.005.18-1.865.18-2.87 0-3.695-1.507t-.825-3.802v-15.998h8.609v-6.887h-8.609v-9.972h-8.465v9.972h-6.027v6.887h6.027v16.07q0 2.51.466 4.699t1.722 3.874c1.256 1.686 1.973 2.008 3.407 2.654s3.3.968 5.596.968m14.037-41.68q2.367 0 3.982-1.472c1.615-1.472 1.614-2.212 1.614-3.694s-.538-2.714-1.614-3.695-2.404-1.47-3.982-1.47-2.882.514-3.91 1.542-1.542 2.236-1.542 3.623.514 2.594 1.542 3.623q1.542 1.542 3.91 1.542zM317.237 469v-34.435h-8.609V469zm24.726 1.004q3.874 0 7.318-1.363t5.955-3.766q2.51-2.403 3.981-5.775 1.47-3.372 1.47-7.461c0-4.089-.49-5.201-1.47-7.425s-2.308-4.125-3.981-5.704q-2.512-2.367-5.955-3.659-3.444-1.29-7.318-1.29t-7.317 1.29q-3.443 1.292-5.955 3.66-2.51 2.367-3.981 5.703-1.47 3.336-1.47 7.425c0 4.089.49 5.213 1.47 7.46s2.308 4.174 3.981 5.776q2.512 2.404 5.955 3.766c3.443 1.362 4.735 1.363 7.317 1.363m0-7.174q-2.582 0-4.447-1.004c-1.865-1.004-2.272-1.53-3.085-2.583a11.1 11.1 0 0 1-1.83-3.587q-.61-2.008-.61-4.017c0-2.009.204-2.667.61-3.982a11.1 11.1 0 0 1 1.83-3.551q1.22-1.578 3.085-2.547 1.865-.968 4.447-.968 2.583 0 4.448.968 1.866.969 3.085 2.547a11.1 11.1 0 0 1 1.83 3.551q.61 1.973.61 3.982c0 2.009-.204 2.678-.61 4.017a11.1 11.1 0 0 1-1.83 3.587q-1.22 1.578-3.085 2.583t-4.448 1.004m33.192 6.17v-18.94q0-1.72.502-3.407t1.471-2.977a7.6 7.6 0 0 1 2.475-2.117q1.506-.825 3.587-.825c2.081 0 2.5.287 3.336.861q1.256.86 1.973 2.188c.717 1.328.789 1.877.933 2.977s.215 2.153.215 3.157V469h8.609v-21.522q0-2.655-.718-5.166-.717-2.51-2.26-4.447t-3.945-3.121q-2.405-1.184-5.775-1.184-3.875 0-6.708 1.973c-2.833 1.973-3.217 2.834-3.982 4.556h-.143v-5.524h-8.179V469zm40.725 1.004q2.797 0 5.416-.61c2.619-.61 3.276-1.064 4.591-1.972s2.368-2.093 3.157-3.551q1.185-2.189 1.184-5.345 0-2.511-1.005-4.269c-1.005-1.758-1.542-2.152-2.618-2.941s-2.272-1.423-3.587-1.901a31 31 0 0 0-3.91-1.148q-3.66-.861-5.56-1.686t-1.901-2.834c-.001-2.009.574-2.295 1.722-2.87q1.721-.86 3.802-.86 2.367 0 4.376 1.112t3.157 2.618l5.595-4.95q-2.08-2.655-5.631-3.946a21.2 21.2 0 0 0-7.282-1.29q-2.583 0-5.022.645c-2.439.645-3.085 1.088-4.376 1.973a10.2 10.2 0 0 0-3.12 3.407q-1.184 2.08-1.184 4.95 0 2.44.86 4.09a8.3 8.3 0 0 0 2.296 2.762q1.436 1.112 3.264 1.793c1.828.681 2.475.825 3.767 1.112q3.945.933 5.918 1.865 1.974.933 1.973 3.085 0 1.149-.502 1.937a3.7 3.7 0 0 1-1.327 1.256q-.825.466-1.794.681a8.8 8.8 0 0 1-1.9.215q-2.799 0-5.094-1.22-2.296-1.218-3.73-3.084l-5.668 5.309q2.51 2.726 6.313 4.197a21.5 21.5 0 0 0 7.82 1.47m43.426 16.214v-21.81h.143q1.65 2.583 4.7 4.09 3.048 1.506 6.707 1.506 3.945 0 7.067-1.47 3.12-1.47 5.308-3.946 2.19-2.475 3.372-5.811 1.185-3.336 1.184-7.138c-.001-3.802-.407-4.903-1.22-7.103s-1.96-4.113-3.443-5.739a16.1 16.1 0 0 0-5.31-3.838q-3.084-1.4-6.743-1.399-2.366 0-4.268.538t-3.408 1.363c-1.506.825-1.853 1.172-2.547 1.866q-1.04 1.04-1.686 2.044h-.215v-4.806h-8.25v51.653zm9.828-23.388q-2.367 0-4.232-.968-1.866-.969-3.193-2.547c-1.327-1.578-1.554-2.236-2.009-3.551q-.681-1.973-.681-3.982c0-2.009.227-2.678.681-4.017a11 11 0 0 1 2.01-3.587 10.8 10.8 0 0 1 3.192-2.583q1.865-1.005 4.232-1.004 2.511 0 4.376.968 1.866.969 3.085 2.547a11.1 11.1 0 0 1 1.83 3.551q.61 1.973.61 3.982c0 2.009-.204 2.678-.61 4.017a11.1 11.1 0 0 1-1.83 3.587q-1.22 1.578-3.085 2.583t-4.376 1.004m33.12 6.17v-18.437q0-.934.359-2.511.358-1.578 1.363-3.085c1.005-1.507 1.602-1.865 2.798-2.583q1.794-1.076 4.735-1.076.573 0 1.183.072c.61.072.897.143 1.471.287v-7.892a4 4 0 0 0-1.004-.179 17 17 0 0 0-1.076-.036q-3.444 0-6.027 1.865-2.582 1.866-4.017 4.879h-.143v-5.74h-8.25V469zm30.466 1.004q3.874 0 7.317-1.363c3.443-1.363 4.28-2.164 5.955-3.766q2.51-2.403 3.981-5.775c1.471-3.372 1.471-4.735 1.471-7.461s-.49-5.201-1.47-7.425q-1.471-3.336-3.982-5.704t-5.955-3.659q-3.443-1.29-7.317-1.29t-7.318 1.29-5.954 3.66q-2.51 2.367-3.982 5.703-1.47 3.336-1.47 7.425c0 4.089.49 5.213 1.47 7.46q1.47 3.373 3.982 5.776 2.51 2.404 5.954 3.766t7.318 1.363m0-7.174q-2.583 0-4.448-1.004t-3.085-2.583a11.1 11.1 0 0 1-1.83-3.587q-.61-2.008-.61-4.017c0-2.009.204-2.667.61-3.982a11.1 11.1 0 0 1 1.83-3.551q1.22-1.578 3.085-2.547 1.865-.968 4.448-.968 2.582 0 4.448.968 1.865.969 3.084 2.547a11.1 11.1 0 0 1 1.83 3.551q.61 1.973.61 3.982c0 2.009-.204 2.678-.61 4.017a11.1 11.1 0 0 1-1.83 3.587q-1.219 1.578-3.084 2.583c-1.865 1.005-2.727 1.004-4.448 1.004m34.554 6.17v-27.548h7.964v-6.887h-7.964v-5.596q0-1.291.216-2.655c.216-1.364.418-1.745.825-2.51s.992-1.388 1.757-1.866q1.149-.717 3.013-.717.933 0 1.758.143t1.542.359l.574-7.318a12 12 0 0 0-1.972-.394 22 22 0 0 0-2.404-.108q-4.017 0-6.672 1.256t-4.268 3.407c-1.614 2.151-1.842 3.097-2.296 4.986s-.681 3.862-.681 5.919v5.094h-6.529v6.887h6.529V469zm27.31 1.004q9.684 0 14.778-6.887l-5.74-4.591a10.2 10.2 0 0 1-3.658 3.264q-2.224 1.185-5.452 1.184-1.866 0-3.587-.646a10.9 10.9 0 0 1-3.085-1.758 8.7 8.7 0 0 1-2.188-2.654q-.825-1.542-.969-3.408h26.185a9 9 0 0 0 .072-1.147v-1.148q0-4.664-1.255-8.143t-3.48-5.81a14.4 14.4 0 0 0-5.273-3.516q-3.048-1.185-6.636-1.184-3.874 0-7.21 1.327-3.336 1.328-5.775 3.73-2.439 2.404-3.838 5.812t-1.399 7.568q0 4.233 1.4 7.57c1.4 3.337 2.223 4.1 3.873 5.63q2.476 2.297 5.847 3.552t7.39 1.255m7.747-21.665h-17.648q.287-3.66 2.977-5.99c2.69-2.33 3.982-2.332 6.565-2.332q2.08 0 3.623.681c1.543.681 1.877 1.064 2.546 1.83s1.16 1.65 1.471 2.654q.465 1.507.466 3.157m24.511 21.665q2.798 0 5.417-.61c2.619-.61 3.276-1.064 4.591-1.972q1.973-1.364 3.157-3.551 1.183-2.189 1.183-5.345 0-2.511-1.004-4.269c-1.004-1.758-1.542-2.152-2.618-2.941s-2.272-1.423-3.587-1.901a31 31 0 0 0-3.91-1.148q-3.66-.861-5.56-1.686-1.902-.825-1.901-2.834c.001-2.009.574-2.295 1.721-2.87q1.722-.86 3.803-.86 2.367 0 4.376 1.112t3.156 2.618l5.596-4.95q-2.08-2.655-5.631-3.946a21.2 21.2 0 0 0-7.282-1.29q-2.583 0-5.022.645c-2.439.645-3.085 1.088-4.376 1.973a10.2 10.2 0 0 0-3.12 3.407q-1.185 2.08-1.185 4.95 0 2.44.861 4.09a8.3 8.3 0 0 0 2.296 2.762 12.3 12.3 0 0 0 3.264 1.793q1.83.682 3.767 1.112 3.945.933 5.918 1.865 1.973.933 1.973 3.085 0 1.149-.502 1.937a3.7 3.7 0 0 1-1.327 1.256q-.825.466-1.794.681a8.8 8.8 0 0 1-1.9.215q-2.799 0-5.095-1.22-2.295-1.218-3.73-3.084l-5.668 5.309q2.511 2.726 6.314 4.197a21.5 21.5 0 0 0 7.82 1.47zm29.39 0q2.797 0 5.416-.61c2.619-.61 3.276-1.064 4.592-1.972q1.973-1.364 3.156-3.551 1.184-2.189 1.184-5.345 0-2.511-1.004-4.269c-1.004-1.758-1.543-2.152-2.619-2.941s-2.272-1.423-3.587-1.901a31 31 0 0 0-3.91-1.148q-3.659-.861-5.56-1.686t-1.9-2.834c0-2.009.573-2.295 1.72-2.87s2.416-.86 3.803-.86q2.367 0 4.376 1.112t3.157 2.618l5.596-4.95q-2.081-2.655-5.632-3.946a21.2 21.2 0 0 0-7.282-1.29q-2.581 0-5.022.645-2.438.645-4.376 1.973a10.2 10.2 0 0 0-3.12 3.407q-1.184 2.08-1.184 4.95 0 2.44.86 4.09a8.3 8.3 0 0 0 2.296 2.762 12.3 12.3 0 0 0 3.265 1.793q1.83.682 3.766 1.112 3.945.933 5.919 1.865 1.972.933 1.972 3.085 0 1.149-.502 1.937-.501.79-1.327 1.256c-.826.466-1.148.538-1.793.681a8.8 8.8 0 0 1-1.902.215q-2.798 0-5.093-1.22-2.295-1.218-3.73-3.084l-5.668 5.309q2.51 2.726 6.313 4.197a21.5 21.5 0 0 0 7.82 1.47m23.722-41.968q2.367 0 3.981-1.47c1.614-1.47 1.614-2.213 1.614-3.695s-.538-2.714-1.614-3.695-2.403-1.47-3.981-1.47-2.882.514-3.91 1.542-1.543 2.236-1.543 3.623.514 2.594 1.543 3.623q1.542 1.542 3.91 1.542M684.33 469v-34.435h-8.61V469zm24.726 1.004q3.874 0 7.318-1.363c3.444-1.363 4.28-2.164 5.954-3.766q2.51-2.403 3.982-5.775c1.472-3.372 1.47-4.735 1.47-7.461s-.49-5.201-1.47-7.425-2.308-4.125-3.982-5.704-3.659-2.798-5.954-3.659q-3.444-1.29-7.318-1.29-3.875 0-7.317 1.29-3.444 1.292-5.955 3.66c-2.511 2.368-3.001 3.479-3.982 5.703q-1.47 3.336-1.47 7.425c0 4.089.49 5.213 1.47 7.46q1.47 3.373 3.982 5.776 2.511 2.404 5.955 3.766 3.442 1.363 7.317 1.363m0-7.174q-2.582 0-4.448-1.004-1.865-1.004-3.085-2.583a11.1 11.1 0 0 1-1.83-3.587q-.609-2.008-.609-4.017c0-2.009.203-2.667.61-3.982a11.1 11.1 0 0 1 1.83-3.551q1.218-1.578 3.084-2.547 1.866-.968 4.448-.968t4.448.968 3.085 2.547a11.1 11.1 0 0 1 1.83 3.551q.609 1.973.609 3.982c0 2.009-.203 2.678-.61 4.017a11.1 11.1 0 0 1-1.83 3.587q-1.218 1.578-3.084 2.583c-1.866 1.005-2.726 1.004-4.448 1.004m33.192 6.17v-18.94q0-1.72.502-3.407.503-1.687 1.47-2.977a7.6 7.6 0 0 1 2.476-2.117q1.506-.825 3.587-.825c2.081 0 2.499.287 3.336.861s1.494 1.303 1.972 2.188q.719 1.327.933 2.977.216 1.65.215 3.157V469h8.61v-21.522q0-2.655-.718-5.166-.717-2.51-2.26-4.447t-3.946-3.121-5.775-1.184q-3.874 0-6.708 1.973c-2.834 1.973-3.216 2.834-3.981 4.556h-.144v-5.524h-8.178V469zm39.29 0v-18.94q0-1.72.501-3.407.503-1.687 1.471-2.977a7.6 7.6 0 0 1 2.475-2.117q1.507-.825 3.587-.825c2.08 0 2.5.287 3.336.861a6.2 6.2 0 0 1 1.973 2.188q.718 1.327.933 2.977t.215 3.157V469h8.609v-21.522q0-2.655-.718-5.166-.717-2.51-2.26-4.447t-3.945-3.121-5.775-1.184q-3.874 0-6.708 1.973c-2.834 1.973-3.216 2.834-3.982 4.556h-.143v-5.524h-8.179V469zm47.18 1.004q9.685 0 14.779-6.887l-5.74-4.591a10.2 10.2 0 0 1-3.658 3.264q-2.224 1.184-5.452 1.184-1.866 0-3.587-.646a10.9 10.9 0 0 1-3.085-1.758 8.7 8.7 0 0 1-2.188-2.654q-.825-1.542-.969-3.408h26.185a9 9 0 0 0 .072-1.147v-1.148q0-4.664-1.255-8.143t-3.48-5.81a14.4 14.4 0 0 0-5.273-3.516q-3.048-1.184-6.636-1.184-3.873 0-7.21 1.327-3.335 1.328-5.775 3.73-2.439 2.404-3.838 5.812t-1.399 7.568q0 4.233 1.4 7.57c1.4 3.337 2.223 4.1 3.873 5.63q2.476 2.296 5.847 3.552 3.372 1.255 7.39 1.255zm7.748-21.665h-17.648q.287-3.66 2.977-5.99c2.69-2.33 3.982-2.332 6.565-2.332q2.08 0 3.623.681c1.543.681 1.877 1.064 2.546 1.83s1.16 1.65 1.471 2.654q.465 1.507.466 3.157M859.686 469v-54.236h-8.609V469zm16.763 0v-54.236h-8.609V469zm24.511 1.004q9.685 0 14.779-6.887l-5.74-4.591a10.2 10.2 0 0 1-3.658 3.264q-2.224 1.185-5.453 1.184-1.865 0-3.587-.646a10.9 10.9 0 0 1-3.084-1.758 8.7 8.7 0 0 1-2.189-2.654q-.824-1.542-.968-3.408h26.185a9 9 0 0 0 .072-1.147v-1.148q0-4.664-1.255-8.143t-3.48-5.81c-2.225-2.33-3.24-2.727-5.273-3.516q-3.048-1.184-6.636-1.184-3.874 0-7.21 1.327-3.336 1.328-5.775 3.73c-2.439 2.402-2.905 3.54-3.838 5.812q-1.4 3.408-1.399 7.568 0 4.233 1.399 7.57c1.399 3.337 2.224 4.1 3.874 5.63q2.475 2.296 5.847 3.552c3.372 1.256 4.71 1.255 7.39 1.255zm7.748-21.665H891.06q.287-3.66 2.977-5.99c2.69-2.33 3.982-2.332 6.564-2.332q2.08 0 3.623.681c1.543.681 1.878 1.064 2.547 1.83s1.16 1.65 1.47 2.654a10.6 10.6 0 0 1 .467 3.157m24.511 21.665q2.797 0 5.417-.61c2.62-.61 3.276-1.064 4.591-1.972s2.367-2.093 3.157-3.551q1.183-2.189 1.183-5.345 0-2.511-1.004-4.269c-1.004-1.758-1.543-2.152-2.619-2.941s-2.271-1.423-3.587-1.901a31 31 0 0 0-3.91-1.148q-3.658-.861-5.56-1.686-1.9-.825-1.9-2.834c0-2.009.573-2.295 1.721-2.87q1.723-.86 3.802-.86 2.369 0 4.377 1.112 2.009 1.112 3.156 2.618l5.596-4.95q-2.08-2.655-5.632-3.946a21.2 21.2 0 0 0-7.281-1.29q-2.583 0-5.022.645c-2.439.645-3.085 1.088-4.376 1.973a10.2 10.2 0 0 0-3.121 3.407q-1.184 2.08-1.184 4.95 0 2.44.861 4.09a8.3 8.3 0 0 0 2.296 2.762q1.434 1.112 3.264 1.793c1.83.681 2.475.825 3.766 1.112q3.946.933 5.919 1.865 1.973.933 1.973 3.085 0 1.149-.502 1.937a3.7 3.7 0 0 1-1.327 1.256q-.825.466-1.794.681a8.8 8.8 0 0 1-1.901.215q-2.798 0-5.094-1.22-2.295-1.218-3.73-3.084l-5.668 5.309q2.511 2.726 6.313 4.197c3.802 1.471 5.142 1.47 7.82 1.47" fill="#fff" fill-rule="nonzero"/></g></svg>