<svg xmlns="http://www.w3.org/2000/svg" viewBox="0 0 1046 567"><g fill="none" fill-rule="evenodd"><path d="M672.568 192.083c37.025 0 63.898 27.47 63.898 75.544 0 48.072-26.873 75.842-63.898 75.842-17.02 0-32.845-7.166-44.492-22.095v56.732c0 10.153-8.358 18.512-19.109 18.512-10.45 0-18.81-8.359-18.81-18.512v-165.72c0-10.15 8.36-18.512 19.407-18.512 10.154 0 18.512 8.361 18.512 18.512v1.494c11.05-14.034 26.874-21.797 44.492-21.797zm144.155 0c18.81 0 44.49 5.97 52.55 17.617a13.064 13.064 0 012.39 7.464c0 8.063-7.165 14.333-14.93 14.333-2.388 0-5.075-.597-7.164-1.792-9.258-5.374-20.901-8.66-32.548-8.66-13.736 0-22.693 6.272-22.693 14.334 0 21.498 85.397 3.584 85.397 61.809 0 26.276-22.393 46.28-62.406 46.28-18.811 0-48.97-6.27-57.926-19.11-1.791-2.388-2.687-5.075-2.687-8.06 0-8.957 7.763-15.825 15.825-15.825 2.687 0 5.374.596 7.764 2.089 11.346 6.57 26.275 11.644 38.817 11.644 16.42 0 24.185-6.567 24.185-15.524 0-23.89-85.695-4.481-85.695-61.213 0-24.187 21.199-45.385 59.12-45.385zm-325.245 0c32.546 0 57.33 18.81 67.483 48.67 2.09 6.569 4.178 14.633 4.178 21.798 0 9.257-7.762 17.318-17.617 17.318h-88.98c2.39 18.215 17.021 33.442 41.505 33.442 8.062 0 19.11-2.387 28.068-7.166 2.388-1.194 5.075-1.791 7.465-1.791 8.061 0 16.123 6.27 16.123 15.229 0 17.018-36.727 23.886-55.837 23.886-43.893 0-77.036-29.561-77.036-75.841 0-41.804 30.755-75.544 74.648-75.544zm434.822 1.792c10.152 0 18.51 8.36 18.51 18.512v110.479c0 10.45-8.358 18.812-19.11 18.812a18.733 18.733 0 01-18.81-18.812v-110.48c0-10.151 8.36-18.511 19.41-18.511zm-265.676 31.948c-12.24 0-26.275 7.167-32.548 16.424v51.057c6.273 8.96 20.307 16.423 32.548 16.423 21.798 0 36.43-17.018 36.43-42.1 0-24.784-14.632-41.804-36.43-41.804zm-169.146-3.582c-23.588 0-33.74 17.617-35.533 31.949h71.066c-.896-13.734-10.45-31.95-35.533-31.95zm434.223-87.19c12.543 0 22.693 9.855 22.693 22.396s-10.15 22.692-22.693 22.692c-12.241 0-22.692-10.151-22.692-22.692s10.45-22.395 22.692-22.395z" fill="#ffffff"/><path d="M266.897 344.073h42.224v-42.224h-42.224z" fill="#935b9e"/><path d="M140.224 301.849h42.224v-42.224h-42.224z" fill="#8fbf55"/><path d="M266.897 217.4v42.224h-42.224v42.224h-42.225v42.224h84.449v-42.224h42.224V217.4z" fill="#37b7d5"/><path d="M224.673 217.4h-42.225v84.448h42.225v-42.224h42.224V217.4z" fill="#fad053"/><path d="M271.429 81v42.225h42.224v42.224h42.224V81z" fill="#da4759"/><path d="M182.448 175.176v-42.224H98V344.073h84.448v-42.224h-42.224v-42.224h42.224V217.4h-42.224v-42.225z" fill="#4b4b99"/><path d="M224.673 175.176v-42.224h-42.225v42.224h-42.224V217.4h126.673v-42.225z" fill="#e4813f"/><path d="M113.137 469v-27.548h7.963v-6.887h-7.963v-5.596c0-.861.072-1.746.215-2.655s.419-1.745.826-2.51.992-1.388 1.757-1.866c.765-.478 1.77-.717 3.013-.717.622 0 1.208.048 1.758.143.55.096 1.064.215 1.542.359l.574-7.318c-.67-.19-1.327-.322-1.973-.394s-1.446-.108-2.403-.108c-2.678 0-4.902.419-6.672 1.256-1.77.837-3.192 1.973-4.268 3.407s-1.842 3.097-2.296 4.986-.682 3.862-.682 5.919v5.094H98v6.887h6.528V469zm27.524 1.004c2.583 0 5.022-.454 7.318-1.363s4.28-2.164 5.954-3.766c1.674-1.602 3.002-3.527 3.982-5.775.98-2.248 1.47-4.735 1.47-7.461s-.49-5.201-1.47-7.425-2.308-4.125-3.982-5.704c-1.674-1.578-3.658-2.798-5.954-3.659-2.296-.86-4.735-1.29-7.318-1.29s-5.021.43-7.317 1.29c-2.296.861-4.28 2.081-5.955 3.66-1.674 1.578-3 3.479-3.981 5.703-.98 2.224-1.47 4.699-1.47 7.425s.49 5.213 1.47 7.46c.98 2.249 2.307 4.174 3.981 5.776 1.674 1.602 3.66 2.858 5.955 3.766s4.735 1.363 7.317 1.363zm0-7.174c-1.721 0-3.204-.334-4.448-1.004-1.243-.67-2.271-1.53-3.084-2.583a11.063 11.063 0 01-1.83-3.587c-.406-1.339-.61-2.678-.61-4.017s.204-2.667.61-3.982a11.128 11.128 0 011.83-3.551c.813-1.052 1.841-1.901 3.084-2.547 1.244-.645 2.727-.968 4.448-.968s3.205.323 4.448.968c1.244.646 2.272 1.495 3.085 2.547a11.128 11.128 0 011.83 3.551c.406 1.315.61 2.643.61 3.982s-.204 2.678-.61 4.017a11.063 11.063 0 01-1.83 3.587c-.813 1.052-1.841 1.913-3.085 2.583-1.243.67-2.726 1.004-4.448 1.004zm33.192 6.17v-18.437c0-.622.12-1.46.359-2.511.239-1.052.693-2.08 1.363-3.085.67-1.004 1.602-1.865 2.798-2.583 1.195-.717 2.774-1.076 4.735-1.076.382 0 .777.024 1.183.072.407.048.897.143 1.471.287v-7.892a3.97 3.97 0 00-1.004-.179 17.307 17.307 0 00-1.076-.036c-2.296 0-4.305.622-6.027 1.865s-3.06 2.87-4.017 4.879h-.144v-5.74h-8.25V469zm23.65 0v-18.94c0-1.147.156-2.283.467-3.407.31-1.124.765-2.117 1.363-2.977s1.375-1.567 2.331-2.117c.957-.55 2.08-.825 3.372-.825 2.2 0 3.814.706 4.842 2.117 1.029 1.41 1.543 3.192 1.543 5.344V469h8.609v-18.796c0-1.1.143-2.212.43-3.336a9.521 9.521 0 011.363-3.049c.622-.909 1.411-1.65 2.368-2.224s2.104-.86 3.443-.86c1.387 0 2.5.286 3.336.86a6.186 6.186 0 011.973 2.188c.478.885.79 1.877.933 2.977s.215 2.153.215 3.157V469h8.609v-21.522c0-1.77-.24-3.492-.718-5.166-.478-1.673-1.231-3.156-2.26-4.447-1.028-1.292-2.343-2.332-3.945-3.121-1.602-.79-3.527-1.184-5.775-1.184-2.583 0-4.83.562-6.744 1.686-1.913 1.124-3.443 2.738-4.591 4.843-.957-1.961-2.32-3.54-4.09-4.735-1.77-1.196-3.993-1.794-6.671-1.794-1.387 0-2.655.18-3.803.538s-2.164.85-3.049 1.47a12.033 12.033 0 00-2.295 2.081 10.201 10.201 0 00-1.543 2.44h-.143v-5.524h-8.179V469zm63.251.86c2.44 0 4.615-.49 6.529-1.47s3.3-2.236 4.16-3.766h.216V469h8.035v-20.948a20.17 20.17 0 00-.682-5.166c-.454-1.721-1.255-3.276-2.403-4.663s-2.714-2.51-4.7-3.372c-1.984-.86-4.507-1.29-7.568-1.29-2.63 0-5.225.454-7.784 1.362s-4.818 2.272-6.78 4.09l4.449 5.236c1.1-1.1 2.487-2.032 4.16-2.797a12.458 12.458 0 015.238-1.148c2.152 0 4.005.514 5.56 1.542s2.331 2.619 2.331 4.77v.862a87.75 87.75 0 00-8.214.394c-2.798.263-5.345.801-7.64 1.615s-4.173 1.984-5.632 3.515c-1.459 1.53-2.188 3.587-2.188 6.17 0 2.008.418 3.694 1.255 5.057.837 1.363 1.89 2.463 3.157 3.3 1.267.837 2.654 1.435 4.16 1.794s2.954.538 4.341.538zm1.722-6.528c-.717 0-1.435-.071-2.152-.215s-1.363-.382-1.937-.717a4.13 4.13 0 01-1.4-1.327c-.358-.55-.537-1.232-.537-2.045 0-1.291.43-2.308 1.291-3.049.86-.741 1.937-1.315 3.228-1.722s2.703-.67 4.233-.789c1.53-.12 2.99-.18 4.376-.18h1.937v1.22c0 2.727-.765 4.879-2.295 6.457s-3.779 2.367-6.744 2.367zm36.348 6.385c.957 0 1.961-.083 3.013-.25 1.052-.168 1.961-.395 2.726-.682l-.287-6.744a7.52 7.52 0 01-1.793.538c-.67.12-1.291.18-1.865.18-1.913 0-3.145-.503-3.695-1.507-.55-1.004-.825-2.272-.825-3.802v-15.998h8.609v-6.887h-8.609v-9.972h-8.465v9.972h-6.027v6.887h6.027v16.07c0 1.673.155 3.24.466 4.699.31 1.458.885 2.75 1.722 3.874s1.973 2.008 3.407 2.654 3.3.968 5.596.968zm14.037-41.68c1.578 0 2.906-.491 3.982-1.472s1.614-2.212 1.614-3.694-.538-2.714-1.614-3.695-2.404-1.47-3.982-1.47-2.882.514-3.91 1.542-1.542 2.236-1.542 3.623.514 2.594 1.542 3.623c1.028 1.028 2.332 1.542 3.91 1.542zM317.237 469v-34.435h-8.609V469zm24.726 1.004c2.583 0 5.022-.454 7.318-1.363 2.296-.908 4.28-2.164 5.955-3.766 1.673-1.602 3-3.527 3.981-5.775.98-2.248 1.47-4.735 1.47-7.461s-.49-5.201-1.47-7.425-2.308-4.125-3.981-5.704c-1.674-1.578-3.66-2.798-5.955-3.659-2.296-.86-4.735-1.29-7.318-1.29-2.582 0-5.021.43-7.317 1.29-2.296.861-4.28 2.081-5.955 3.66-1.673 1.578-3 3.479-3.981 5.703-.98 2.224-1.47 4.699-1.47 7.425s.49 5.213 1.47 7.46 2.308 4.174 3.981 5.776c1.674 1.602 3.66 2.858 5.955 3.766s4.735 1.363 7.317 1.363zm0-7.174c-1.721 0-3.204-.334-4.447-1.004s-2.272-1.53-3.085-2.583a11.063 11.063 0 01-1.83-3.587c-.406-1.339-.61-2.678-.61-4.017s.204-2.667.61-3.982a11.128 11.128 0 011.83-3.551c.813-1.052 1.841-1.901 3.085-2.547 1.243-.645 2.726-.968 4.447-.968 1.722 0 3.205.323 4.448.968 1.244.646 2.272 1.495 3.085 2.547a11.128 11.128 0 011.83 3.551c.406 1.315.61 2.643.61 3.982s-.204 2.678-.61 4.017a11.063 11.063 0 01-1.83 3.587c-.813 1.052-1.841 1.913-3.085 2.583-1.243.67-2.726 1.004-4.448 1.004zm33.192 6.17v-18.94c0-1.147.168-2.283.502-3.407.335-1.124.825-2.117 1.471-2.977.646-.861 1.47-1.567 2.475-2.117 1.004-.55 2.2-.825 3.587-.825s2.5.287 3.336.861c.837.574 1.495 1.303 1.973 2.188s.789 1.877.933 2.977.215 2.153.215 3.157V469h8.609v-21.522c0-1.77-.24-3.492-.718-5.166-.478-1.673-1.231-3.156-2.26-4.447-1.028-1.292-2.343-2.332-3.945-3.121-1.603-.79-3.528-1.184-5.775-1.184-2.583 0-4.82.658-6.708 1.973s-3.217 2.834-3.982 4.556h-.143v-5.524h-8.179V469zm40.725 1.004c1.865 0 3.67-.203 5.416-.61s3.276-1.064 4.591-1.972 2.368-2.093 3.157-3.551c.79-1.46 1.184-3.24 1.184-5.345 0-1.674-.335-3.097-1.005-4.269s-1.542-2.152-2.618-2.941-2.272-1.423-3.587-1.901a31.328 31.328 0 00-3.91-1.148c-2.44-.574-4.293-1.136-5.56-1.686-1.267-.55-1.901-1.495-1.901-2.834s.574-2.295 1.722-2.87c1.147-.573 2.415-.86 3.802-.86 1.578 0 3.037.37 4.376 1.112 1.34.741 2.391 1.614 3.157 2.618l5.595-4.95c-1.387-1.77-3.264-3.085-5.631-3.946a21.152 21.152 0 00-7.282-1.29c-1.722 0-3.396.214-5.022.645s-3.085 1.088-4.376 1.973a10.164 10.164 0 00-3.12 3.407c-.79 1.387-1.184 3.037-1.184 4.95 0 1.627.287 2.99.86 4.09a8.31 8.31 0 002.296 2.762c.957.741 2.045 1.339 3.264 1.793s2.475.825 3.767 1.112c2.63.622 4.603 1.244 5.918 1.865 1.316.622 1.973 1.65 1.973 3.085 0 .766-.167 1.411-.502 1.937a3.714 3.714 0 01-1.327 1.256c-.55.31-1.148.538-1.794.681a8.747 8.747 0 01-1.9.215c-1.866 0-3.564-.406-5.094-1.22-1.53-.812-2.774-1.84-3.73-3.084l-5.668 5.309c1.674 1.817 3.778 3.216 6.313 4.197a21.5 21.5 0 007.82 1.47zm43.426 16.214v-21.81h.143c1.1 1.722 2.667 3.085 4.7 4.09 2.032 1.004 4.268 1.506 6.707 1.506 2.63 0 4.986-.49 7.067-1.47 2.08-.98 3.85-2.296 5.308-3.946 1.46-1.65 2.583-3.587 3.372-5.811.79-2.224 1.184-4.603 1.184-7.138s-.407-4.903-1.22-7.103-1.96-4.113-3.443-5.739a16.093 16.093 0 00-5.31-3.838c-2.056-.933-4.304-1.399-6.743-1.399-1.578 0-3 .18-4.268.538-1.268.359-2.404.813-3.408 1.363s-1.853 1.172-2.547 1.866c-.693.693-1.255 1.375-1.686 2.044h-.215v-4.806h-8.25v51.653zm9.828-23.388c-1.578 0-2.989-.323-4.232-.968-1.244-.646-2.308-1.495-3.193-2.547s-1.554-2.236-2.009-3.551c-.454-1.315-.681-2.643-.681-3.982s.227-2.678.681-4.017a11.02 11.02 0 012.01-3.587 10.843 10.843 0 013.192-2.583c1.243-.67 2.654-1.004 4.232-1.004 1.674 0 3.133.323 4.376.968 1.244.646 2.272 1.495 3.085 2.547a11.128 11.128 0 011.83 3.551c.406 1.315.61 2.643.61 3.982s-.204 2.678-.61 4.017a11.063 11.063 0 01-1.83 3.587c-.813 1.052-1.841 1.913-3.085 2.583-1.243.67-2.702 1.004-4.376 1.004zm33.12 6.17v-18.437c0-.622.12-1.46.359-2.511.239-1.052.693-2.08 1.363-3.085s1.602-1.865 2.798-2.583c1.196-.717 2.774-1.076 4.735-1.076.382 0 .777.024 1.183.072s.897.143 1.471.287v-7.892a3.97 3.97 0 00-1.004-.179 17.307 17.307 0 00-1.076-.036c-2.296 0-4.305.622-6.027 1.865-1.721 1.244-3.06 2.87-4.017 4.879h-.143v-5.74h-8.25V469zm30.466 1.004c2.582 0 5.022-.454 7.317-1.363s4.28-2.164 5.955-3.766c1.674-1.602 3-3.527 3.981-5.775s1.471-4.735 1.471-7.461-.49-5.201-1.47-7.425c-.981-2.224-2.308-4.125-3.982-5.704-1.674-1.578-3.659-2.798-5.955-3.659-2.295-.86-4.735-1.29-7.317-1.29-2.583 0-5.022.43-7.318 1.29-2.296.861-4.28 2.081-5.954 3.66-1.674 1.578-3.001 3.479-3.982 5.703-.98 2.224-1.47 4.699-1.47 7.425s.49 5.213 1.47 7.46c.98 2.249 2.308 4.174 3.982 5.776 1.674 1.602 3.658 2.858 5.954 3.766 2.296.909 4.735 1.363 7.318 1.363zm0-7.174c-1.722 0-3.205-.334-4.448-1.004-1.244-.67-2.272-1.53-3.085-2.583a11.063 11.063 0 01-1.83-3.587c-.406-1.339-.61-2.678-.61-4.017s.204-2.667.61-3.982a11.128 11.128 0 011.83-3.551c.813-1.052 1.841-1.901 3.085-2.547 1.243-.645 2.726-.968 4.448-.968 1.721 0 3.204.323 4.448.968 1.243.646 2.271 1.495 3.084 2.547a11.128 11.128 0 011.83 3.551c.406 1.315.61 2.643.61 3.982s-.204 2.678-.61 4.017a11.063 11.063 0 01-1.83 3.587c-.813 1.052-1.84 1.913-3.084 2.583s-2.727 1.004-4.448 1.004zm34.554 6.17v-27.548h7.964v-6.887h-7.964v-5.596c0-.861.072-1.746.216-2.655s.418-1.745.825-2.51.992-1.388 1.757-1.866c.766-.478 1.77-.717 3.013-.717.622 0 1.208.048 1.758.143.55.096 1.064.215 1.542.359l.574-7.318a12.005 12.005 0 00-1.972-.394 22.353 22.353 0 00-2.404-.108c-2.678 0-4.902.419-6.672 1.256-1.77.837-3.192 1.973-4.268 3.407s-1.842 3.097-2.296 4.986-.681 3.862-.681 5.919v5.094h-6.529v6.887h6.529V469zm27.31 1.004c6.456 0 11.382-2.295 14.778-6.887l-5.74-4.591a10.213 10.213 0 01-3.658 3.264c-1.483.79-3.3 1.184-5.452 1.184-1.244 0-2.44-.215-3.587-.646a10.887 10.887 0 01-3.085-1.758 8.674 8.674 0 01-2.188-2.654c-.55-1.028-.873-2.164-.969-3.408h26.185c.048-.382.072-.765.072-1.147v-1.148c0-3.11-.418-5.823-1.255-8.143-.837-2.32-1.997-4.256-3.48-5.81a14.39 14.39 0 00-5.273-3.516c-2.032-.79-4.244-1.184-6.636-1.184-2.582 0-4.986.443-7.21 1.327-2.224.885-4.149 2.129-5.775 3.73-1.626 1.603-2.905 3.54-3.838 5.812-.932 2.272-1.399 4.795-1.399 7.568 0 2.822.467 5.345 1.4 7.57s2.223 4.1 3.873 5.63c1.65 1.531 3.6 2.715 5.847 3.552 2.248.837 4.711 1.255 7.39 1.255zm7.747-21.665h-17.648c.191-2.44 1.184-4.436 2.977-5.99s3.982-2.332 6.565-2.332c1.387 0 2.594.227 3.623.681s1.877 1.064 2.546 1.83 1.16 1.65 1.471 2.654c.31 1.004.466 2.057.466 3.157zm24.511 21.665c1.866 0 3.671-.203 5.417-.61s3.276-1.064 4.591-1.972c1.315-.909 2.368-2.093 3.157-3.551.789-1.46 1.183-3.24 1.183-5.345 0-1.674-.334-3.097-1.004-4.269s-1.542-2.152-2.618-2.941-2.272-1.423-3.587-1.901a31.328 31.328 0 00-3.91-1.148c-2.44-.574-4.293-1.136-5.56-1.686-1.268-.55-1.901-1.495-1.901-2.834s.574-2.295 1.721-2.87c1.148-.573 2.416-.86 3.803-.86 1.578 0 3.037.37 4.376 1.112 1.339.741 2.391 1.614 3.156 2.618l5.596-4.95c-1.387-1.77-3.264-3.085-5.631-3.946a21.152 21.152 0 00-7.282-1.29c-1.722 0-3.396.214-5.022.645s-3.085 1.088-4.376 1.973a10.164 10.164 0 00-3.12 3.407c-.79 1.387-1.185 3.037-1.185 4.95 0 1.627.287 2.99.861 4.09a8.31 8.31 0 002.296 2.762c.957.741 2.045 1.339 3.264 1.793 1.22.455 2.475.825 3.767 1.112 2.63.622 4.603 1.244 5.918 1.865 1.315.622 1.973 1.65 1.973 3.085 0 .766-.167 1.411-.502 1.937a3.714 3.714 0 01-1.327 1.256c-.55.31-1.148.538-1.794.681a8.747 8.747 0 01-1.9.215c-1.866 0-3.564-.406-5.095-1.22-1.53-.812-2.773-1.84-3.73-3.084l-5.668 5.309c1.674 1.817 3.779 3.216 6.314 4.197a21.5 21.5 0 007.82 1.47zm29.39 0c1.865 0 3.67-.203 5.416-.61s3.276-1.064 4.592-1.972c1.315-.909 2.367-2.093 3.156-3.551.79-1.46 1.184-3.24 1.184-5.345 0-1.674-.335-3.097-1.004-4.269s-1.543-2.152-2.619-2.941-2.272-1.423-3.587-1.901a31.328 31.328 0 00-3.91-1.148c-2.44-.574-4.292-1.136-5.56-1.686-1.267-.55-1.9-1.495-1.9-2.834s.573-2.295 1.72-2.87 2.416-.86 3.803-.86c1.578 0 3.037.37 4.376 1.112 1.34.741 2.392 1.614 3.157 2.618l5.596-4.95c-1.387-1.77-3.265-3.085-5.632-3.946a21.152 21.152 0 00-7.282-1.29c-1.721 0-3.395.214-5.022.645-1.626.43-3.084 1.088-4.376 1.973a10.164 10.164 0 00-3.12 3.407c-.79 1.387-1.184 3.037-1.184 4.95 0 1.627.287 2.99.86 4.09a8.31 8.31 0 002.296 2.762c.957.741 2.045 1.339 3.265 1.793 1.22.455 2.475.825 3.766 1.112 2.63.622 4.603 1.244 5.919 1.865 1.315.622 1.972 1.65 1.972 3.085 0 .766-.167 1.411-.502 1.937-.334.526-.777.945-1.327 1.256s-1.148.538-1.793.681a8.747 8.747 0 01-1.902.215c-1.865 0-3.563-.406-5.093-1.22-1.53-.812-2.774-1.84-3.73-3.084l-5.668 5.309c1.674 1.817 3.778 3.216 6.313 4.197a21.5 21.5 0 007.82 1.47zm23.722-41.968c1.578 0 2.905-.49 3.981-1.47s1.614-2.213 1.614-3.695-.538-2.714-1.614-3.695-2.403-1.47-3.981-1.47-2.882.514-3.91 1.542-1.543 2.236-1.543 3.623.514 2.594 1.543 3.623c1.028 1.028 2.331 1.542 3.91 1.542zM684.33 469v-34.435h-8.61V469zm24.726 1.004c2.583 0 5.022-.454 7.318-1.363s4.28-2.164 5.954-3.766c1.674-1.602 3.001-3.527 3.982-5.775s1.47-4.735 1.47-7.461-.49-5.201-1.47-7.425-2.308-4.125-3.982-5.704-3.659-2.798-5.954-3.659c-2.296-.86-4.735-1.29-7.318-1.29-2.583 0-5.022.43-7.317 1.29-2.296.861-4.281 2.081-5.955 3.66s-3.001 3.479-3.982 5.703c-.98 2.224-1.47 4.699-1.47 7.425s.49 5.213 1.47 7.46c.98 2.249 2.308 4.174 3.982 5.776 1.674 1.602 3.659 2.858 5.955 3.766 2.295.909 4.734 1.363 7.317 1.363zm0-7.174c-1.722 0-3.204-.334-4.448-1.004-1.243-.67-2.272-1.53-3.085-2.583a11.063 11.063 0 01-1.83-3.587c-.406-1.339-.609-2.678-.609-4.017s.203-2.667.61-3.982a11.128 11.128 0 011.83-3.551c.812-1.052 1.84-1.901 3.084-2.547 1.244-.645 2.726-.968 4.448-.968 1.722 0 3.204.323 4.448.968 1.243.646 2.272 1.495 3.085 2.547a11.128 11.128 0 011.83 3.551c.406 1.315.609 2.643.609 3.982s-.203 2.678-.61 4.017a11.063 11.063 0 01-1.83 3.587c-.812 1.052-1.84 1.913-3.084 2.583s-2.726 1.004-4.448 1.004zm33.192 6.17v-18.94c0-1.147.167-2.283.502-3.407.335-1.124.825-2.117 1.47-2.977.646-.861 1.471-1.567 2.476-2.117 1.004-.55 2.2-.825 3.587-.825s2.499.287 3.336.861 1.494 1.303 1.972 2.188c.479.885.79 1.877.933 2.977.144 1.1.215 2.153.215 3.157V469h8.61v-21.522c0-1.77-.24-3.492-.718-5.166-.478-1.673-1.232-3.156-2.26-4.447-1.028-1.292-2.344-2.332-3.946-3.121-1.602-.79-3.527-1.184-5.775-1.184-2.583 0-4.818.658-6.708 1.973s-3.216 2.834-3.981 4.556h-.144v-5.524h-8.178V469zm39.29 0v-18.94c0-1.147.167-2.283.501-3.407.335-1.124.826-2.117 1.471-2.977.646-.861 1.47-1.567 2.475-2.117 1.005-.55 2.2-.825 3.587-.825s2.5.287 3.336.861a6.186 6.186 0 011.973 2.188c.478.885.79 1.877.933 2.977.143 1.1.215 2.153.215 3.157V469h8.609v-21.522c0-1.77-.24-3.492-.718-5.166-.478-1.673-1.231-3.156-2.26-4.447-1.028-1.292-2.343-2.332-3.945-3.121-1.602-.79-3.527-1.184-5.775-1.184-2.583 0-4.819.658-6.708 1.973s-3.216 2.834-3.982 4.556h-.143v-5.524h-8.179V469zm47.18 1.004c6.457 0 11.383-2.295 14.779-6.887l-5.74-4.591a10.213 10.213 0 01-3.658 3.264c-1.483.79-3.3 1.184-5.452 1.184-1.244 0-2.44-.215-3.587-.646a10.887 10.887 0 01-3.085-1.758 8.674 8.674 0 01-2.188-2.654c-.55-1.028-.873-2.164-.969-3.408h26.185c.048-.382.072-.765.072-1.147v-1.148c0-3.11-.418-5.823-1.255-8.143-.837-2.32-1.997-4.256-3.48-5.81a14.39 14.39 0 00-5.273-3.516c-2.032-.79-4.244-1.184-6.636-1.184-2.582 0-4.986.443-7.21 1.327-2.223.885-4.149 2.129-5.775 3.73-1.626 1.603-2.905 3.54-3.838 5.812-.932 2.272-1.399 4.795-1.399 7.568 0 2.822.467 5.345 1.4 7.57s2.223 4.1 3.873 5.63c1.65 1.531 3.6 2.715 5.847 3.552 2.248.837 4.711 1.255 7.39 1.255zm7.748-21.665h-17.648c.191-2.44 1.184-4.436 2.977-5.99s3.982-2.332 6.565-2.332c1.387 0 2.594.227 3.623.681s1.877 1.064 2.546 1.83 1.16 1.65 1.471 2.654c.31 1.004.466 2.057.466 3.157zM859.686 469v-54.236h-8.609V469zm16.763 0v-54.236h-8.609V469zm24.511 1.004c6.457 0 11.383-2.295 14.779-6.887l-5.74-4.591a10.213 10.213 0 01-3.658 3.264c-1.483.79-3.3 1.184-5.453 1.184-1.243 0-2.439-.215-3.587-.646a10.887 10.887 0 01-3.084-1.758 8.674 8.674 0 01-2.189-2.654c-.55-1.028-.872-2.164-.968-3.408h26.185c.048-.382.072-.765.072-1.147v-1.148c0-3.11-.418-5.823-1.255-8.143-.837-2.32-1.997-4.256-3.48-5.81s-3.24-2.727-5.273-3.516c-2.032-.79-4.244-1.184-6.636-1.184-2.582 0-4.986.443-7.21 1.327-2.224.885-4.149 2.129-5.775 3.73s-2.905 3.54-3.838 5.812c-.933 2.272-1.399 4.795-1.399 7.568 0 2.822.466 5.345 1.399 7.57s2.224 4.1 3.874 5.63c1.65 1.531 3.599 2.715 5.847 3.552s4.71 1.255 7.39 1.255zm7.748-21.665H891.06c.191-2.44 1.184-4.436 2.977-5.99s3.982-2.332 6.564-2.332c1.387 0 2.595.227 3.623.681s1.878 1.064 2.547 1.83 1.16 1.65 1.47 2.654c.312 1.004.467 2.057.467 3.157zm24.511 21.665c1.865 0 3.67-.203 5.417-.61s3.276-1.064 4.591-1.972 2.367-2.093 3.157-3.551c.789-1.46 1.183-3.24 1.183-5.345 0-1.674-.335-3.097-1.004-4.269s-1.543-2.152-2.619-2.941-2.271-1.423-3.587-1.901a31.328 31.328 0 00-3.91-1.148c-2.439-.574-4.292-1.136-5.56-1.686-1.267-.55-1.9-1.495-1.9-2.834s.573-2.295 1.721-2.87c1.148-.573 2.416-.86 3.802-.86 1.579 0 3.038.37 4.377 1.112 1.339.741 2.391 1.614 3.156 2.618l5.596-4.95c-1.387-1.77-3.264-3.085-5.632-3.946a21.152 21.152 0 00-7.281-1.29c-1.722 0-3.396.214-5.022.645s-3.085 1.088-4.376 1.973a10.164 10.164 0 00-3.121 3.407c-.79 1.387-1.184 3.037-1.184 4.95 0 1.627.287 2.99.861 4.09a8.31 8.31 0 002.296 2.762c.956.741 2.044 1.339 3.264 1.793s2.475.825 3.766 1.112c2.63.622 4.604 1.244 5.919 1.865 1.315.622 1.973 1.65 1.973 3.085 0 .766-.168 1.411-.502 1.937a3.714 3.714 0 01-1.327 1.256c-.55.31-1.148.538-1.794.681a8.747 8.747 0 01-1.901.215c-1.865 0-3.563-.406-5.094-1.22-1.53-.812-2.774-1.84-3.73-3.084l-5.668 5.309c1.674 1.817 3.779 3.216 6.313 4.197s5.142 1.47 7.82 1.47z" fill="#ffffff" fill-rule="nonzero"/></g></svg>